<svg width="18" height="19" viewBox="0 0 18 19" fill="none" xmlns="http://www.w3.org/2000/svg">
<g clip-path="url(#clip0_11_69)">
<path d="M0 0.917616C0 0.776036 0.0561921 0.640255 0.156215 0.540143C0.256237 0.440031 0.391897 0.383789 0.53335 0.383789H2.1334C2.25237 0.383822 2.36791 0.423667 2.46166 0.496987C2.5554 0.570307 2.62196 0.672893 2.65075 0.78843L3.08276 2.5191H15.4671C15.5455 2.51917 15.6228 2.5365 15.6937 2.56987C15.7645 2.60323 15.8272 2.6518 15.8772 2.71213C15.9272 2.77247 15.9633 2.84308 15.9829 2.91895C16.0026 2.99483 16.0053 3.0741 15.9909 3.15115L14.3908 11.6924C14.368 11.8147 14.3031 11.9252 14.2075 12.0047C14.1118 12.0843 13.9914 12.1279 13.8671 12.128H4.2668C4.14246 12.1279 4.02206 12.0843 3.92643 12.0047C3.83079 11.9252 3.76593 11.8147 3.74305 11.6924L2.14407 3.16716L1.71739 1.45144H0.53335C0.391897 1.45144 0.256237 1.3952 0.156215 1.29509C0.0561921 1.19498 0 1.0592 0 0.917616ZM3.3089 3.58675L4.70948 11.0603H13.4244L14.825 3.58675H3.3089ZM5.3335 12.128C4.76769 12.128 4.22505 12.353 3.82496 12.7534C3.42487 13.1539 3.2001 13.697 3.2001 14.2633C3.2001 14.8296 3.42487 15.3727 3.82496 15.7732C4.22505 16.1736 4.76769 16.3986 5.3335 16.3986C5.89931 16.3986 6.44195 16.1736 6.84204 15.7732C7.24213 15.3727 7.4669 14.8296 7.4669 14.2633C7.4669 13.697 7.24213 13.1539 6.84204 12.7534C6.44195 12.353 5.89931 12.128 5.3335 12.128ZM12.8004 12.128C12.2346 12.128 11.6919 12.353 11.2919 12.7534C10.8918 13.1539 10.667 13.697 10.667 14.2633C10.667 14.8296 10.8918 15.3727 11.2919 15.7732C11.6919 16.1736 12.2346 16.3986 12.8004 16.3986C13.3662 16.3986 13.9088 16.1736 14.3089 15.7732C14.709 15.3727 14.9338 14.8296 14.9338 14.2633C14.9338 13.697 14.709 13.1539 14.3089 12.7534C13.9088 12.353 13.3662 12.128 12.8004 12.128ZM5.3335 13.1956C5.6164 13.1956 5.88772 13.3081 6.08777 13.5083C6.28781 13.7086 6.4002 13.9801 6.4002 14.2633C6.4002 14.5465 6.28781 14.818 6.08777 15.0182C5.88772 15.2185 5.6164 15.3309 5.3335 15.3309C5.05059 15.3309 4.77927 15.2185 4.57923 15.0182C4.37918 14.818 4.2668 14.5465 4.2668 14.2633C4.2668 13.9801 4.37918 13.7086 4.57923 13.5083C4.77927 13.3081 5.05059 13.1956 5.3335 13.1956ZM12.8004 13.1956C13.0833 13.1956 13.3546 13.3081 13.5547 13.5083C13.7547 13.7086 13.8671 13.9801 13.8671 14.2633C13.8671 14.5465 13.7547 14.818 13.5547 15.0182C13.3546 15.2185 13.0833 15.3309 12.8004 15.3309C12.5175 15.3309 12.2462 15.2185 12.0461 15.0182C11.8461 14.818 11.7337 14.5465 11.7337 14.2633C11.7337 13.9801 11.8461 13.7086 12.0461 13.5083C12.2462 13.3081 12.5175 13.1956 12.8004 13.1956Z" fill="#37A332"/>
</g>
<defs>
<clipPath id="clip0_11_69">
<rect width="18" height="18.581" fill="white"/>
</clipPath>
</defs>
</svg>
